<?xml version="1.0" encoding="utf-8"?>
<!-- Generator: Adobe Illustrator 23.0.0, SVG Export Plug-In . SVG Version: 6.00 Build 0)  -->
<svg version="1.1" xmlns="http://www.w3.org/2000/svg" xmlns:xlink="http://www.w3.org/1999/xlink" x="0px" y="0px"
	 viewBox="0 0 685.98 687.47" style="enable-background:new 0 0 685.98 687.47;" xml:space="preserve">
<style type="text/css">
	.st0{fill:#7575a3;}
</style>
<g id="Calque_1">
</g>
<g id="Calque_2">
	<path class="st0" d="M625.38,501.78l-143.8-244.04c-0.92-1.56-1.66-3.22-2.2-4.94l-36.41-115.02c-1.37-4.33-3.87-8.22-7.25-11.27
		l-85.65-77.33c-0.68-0.62-1.74-0.53-2.32,0.19L213.14,217.65c-0.11,0.14-0.19,0.29-0.25,0.45l-37.4,102.38
		c-0.04,0.1-0.08,0.2-0.14,0.29L48.34,527.48c-1.64,2.68-2.71,5.66-3.14,8.78l-8.94,65.42c-0.13,0.96,0.61,1.81,1.58,1.81h142.24
		c0.88,0,1.6-0.71,1.6-1.6v-17.72c0-0.5,0.23-0.97,0.63-1.27l23.51-17.94c0.29-0.22,0.5-0.54,0.58-0.89l6.44-26.6
		c0.09-0.36,0.3-0.68,0.59-0.9l20.37-15.28c0.39-0.29,0.62-0.74,0.64-1.22l2.64-72.23c0.01-0.2,0.05-0.4,0.14-0.59l18.28-41.1
		c0.7-1.57,3.05-1.08,3.05,0.65v131.94c0,0.54-0.27,1.04-0.72,1.33l-27.3,17.91c-0.37,0.24-0.62,0.63-0.7,1.06l-4.2,24.39
		c-0.09,0.53-0.44,0.98-0.93,1.19l-36.05,15.81c-1.58,0.69-1.09,3.06,0.64,3.06H636.6c0.95,0,1.69-0.83,1.59-1.77l-10.05-91.63
		C627.82,507.15,626.88,504.32,625.38,501.78z M360.99,269.33l-10.75,28.42c-0.3,0.79-1.15,1.21-1.96,0.96
		c-4.43-1.36-17.32-4.63-11.08,5.82c5.35,8.97-3.41,31.27-8.79,43.17c-0.74,1.63-3.18,0.99-3.04-0.79l4.32-54.34
		c0.03-0.36,0.18-0.7,0.42-0.96l6.67-7.17c0.27-0.3,0.43-0.68,0.43-1.09v-7.19c0-0.67,0.42-1.28,1.06-1.5l20.7-7.4
		C360.24,266.81,361.47,268.06,360.99,269.33z M311.28,264.32c-2.53,4.2-8.17-49.71-8.87-56.5c-0.05-0.45,0.1-0.89,0.4-1.22l7.21-8
		c0.24-0.26,0.38-0.59,0.41-0.95l0.81-10.56c0.03-0.34,0.16-0.66,0.38-0.91l4.63-5.42c0.25-0.29,0.38-0.66,0.38-1.04v-21.81
		c0-1.49-1.87-2.17-2.82-1.02l-14.69,17.64c-0.23,0.28-0.36,0.62-0.37,0.98l-4.45,173.88c-0.01,0.46-0.22,0.89-0.58,1.19
		l-56.24,46.59c-0.26,0.21-0.44,0.5-0.52,0.82l-15.83,59.82c-0.08,0.29-0.24,0.56-0.46,0.77l-44.97,41.45
		c-0.17,0.16-0.31,0.36-0.4,0.58l-22.08,54.73c-0.09,0.23-0.23,0.43-0.41,0.59l-31.87,28.6c-1.03,0.93-2.68,0.18-2.66-1.21
		l0.72-61.65c0.02-1.78-2.44-2.25-3.09-0.59c-2.47,6.4-6.49,14.6-12.42,20.74c-0.29,0.3-0.45,0.69-0.45,1.1v54.5
		c0,1.04-0.98,1.8-1.99,1.55l-31.43-8.05c-0.81-0.21-1.33-1.01-1.17-1.83l10.41-56.81c0.03-0.18,0.1-0.35,0.19-0.51l116.35-201.84
		c0.77-1.33,2.78-0.92,2.97,0.6l3.44,28.26c0.22,1.83,2.86,1.89,3.16,0.07l1.71-10.28c0.03-0.16,0.03-0.33,0-0.49l-4.32-29.43
		c-0.07-0.45,0.06-0.91,0.35-1.25l8.12-9.74c0.24-0.29,0.37-0.65,0.37-1.02v-9.83c0-0.2,0.04-0.4,0.11-0.59l4.78-11.99
		c0.61-1.52-1.2-2.86-2.48-1.84h0c-1.24,0.99-3.01-0.24-2.51-1.75l20.57-61.68c0.05-0.15,0.12-0.28,0.21-0.41L339.21,65.21
		c1.02-1.46,3.3-0.4,2.85,1.32l-11.87,45.06c-0.21,0.81,0.25,1.62,1.03,1.92c1.99,0.75,4.64,3.85-1.28,16.32
		c-0.13,0.28-0.18,0.59-0.14,0.89c0.37,2.52,1.76,14.77-5.29,16.36c-0.86,0.19-1.39,1.06-1.18,1.92l6.3,26.39
		c0.07,0.3,0.05,0.62-0.05,0.91l-12.84,35.94c-0.06,0.17-0.09,0.35-0.09,0.54v47.82c0,1.04-0.97,1.73-1.98,1.53
		C313.69,261.93,312.49,262.31,311.28,264.32z M349.65,496.97l-29.62,8.58c-1.32,0.38-2.47-0.97-1.89-2.21l5.5-11.68
		c0.1-0.22,0.26-0.41,0.45-0.57l12.52-10c0.38-0.3,0.6-0.76,0.6-1.25v-17.09c0-0.57,0.31-1.1,0.8-1.39l17.18-9.81
		c0.48-0.27,0.78-0.78,0.8-1.33l1.74-50.61c0.01-0.22,0.06-0.44,0.16-0.64l11.12-22.93c0.74-1.52,3.03-1,3.03,0.7v86.13
		c0,0.48-0.22,0.94-0.6,1.25l-16.81,13.45c-0.3,0.24-0.5,0.57-0.57,0.95l-3.29,17.22C350.66,496.32,350.23,496.8,349.65,496.97z
		 M381.85,506.64l-5.31,14.12c-0.02,0.04-0.03,0.09-0.05,0.13l-5.09,10.6c-0.16,0.32-0.2,0.69-0.12,1.04l5.15,22.78
		c0.05,0.24,0.05,0.49,0,0.72l-3.85,16.05c-0.38,1.6-2.64,1.64-3.09,0.06l-13.22-46.68c-0.18-0.64,0.06-1.33,0.6-1.73l8.28-6.03
		c0.41-0.3,0.66-0.78,0.66-1.29v-9.24c0-0.42,0.17-0.83,0.47-1.13l16.24-16.25c1.13-1.13,3.03-0.09,2.69,1.47l-3.29,15.14
		C381.89,506.49,381.87,506.57,381.85,506.64z"/>
</g>
</svg>
