<svg xmlns="http://www.w3.org/2000/svg" viewBox="0 0 373 340" class="w-full" style="max-width: 373px;"><defs><linearGradient id="linearGradient-1" x1="100%" x2="0%" y1="50%" y2="50%"><stop offset="0%" stop-color="#FFF" stop-opacity="0"></stop><stop offset="100%" stop-color="#7ED7FF"></stop></linearGradient></defs><g id="Page-1" fill="none" fill-rule="evenodd"><g id="Artboard-4" transform="translate(-757 -185)"><g id="Group-12" transform="translate(757 180)"><g id="Group-4" transform="translate(0 5)"><path id="Combined-Shape-Copy" fill="#DDE4EB" d="M310 274.5c0 7.455844 6.044156 13.5 13.5 13.5h36c7.455844 0 13.5 6.044156 13.5 13.5s-6.044156 13.5-13.5 13.5h-117c-7.455844 0-13.5-6.044156-13.5-13.5s6.044156-13.5 13.5-13.5 13.5-6.044156 13.5-13.5-6.044156-13.5-13.5-13.5h-54c-7.455844 0-13.5-6.044156-13.5-13.5s6.044156-13.5 13.5-13.5h135c7.455844 0 13.5 6.044156 13.5 13.5s-6.044156 13.5-13.5 13.5-13.5 6.044156-13.5 13.5z"></path><path id="Combined-Shape" fill="#DDE4EB" d="M245.677419 110.6c0-8.726099-7.073901-15.8-15.8-15.8h-91.883871c-8.726099 0-15.8 7.073901-15.8 15.8 0 8.726099 7.073901 15.8 15.8 15.8h9.561291c8.726099 0 15.8 7.073901 15.8 15.8 0 8.726099-7.073901 15.8-15.8 15.8H45.3806452c-8.7260991 0-15.8-7.073901-15.8-15.8v-.364516c0-8.524782 6.9107015-15.435484 15.4354838-15.435484 8.5247824 0 15.4354839-6.910702 15.4354839-15.435484V110.6c0-8.726099-7.0739009-15.8-15.8-15.8H24.8C16.073901 94.8 9 87.726099 9 79c0-8.726099 7.073901-15.8 15.8-15.8h71.3032258c8.7260992 0 15.8000002-7.073901 15.8000002-15.8 0-8.726099-7.073901-15.8-15.8000002-15.8h-9.5612903c-8.7260991 0-15.8-7.073901-15.8-15.8 0-8.72609905 7.0739009-15.8 15.8-15.8H250.458065c8.726099 0 15.8 7.07390095 15.8 15.8 0 8.726099-7.073901 15.8-15.8 15.8h-30.141936c-8.726099 0-15.8 7.073901-15.8 15.8 0 8.726099 7.073901 15.8 15.8 15.8H312.2c8.726099 0 15.8 7.073901 15.8 15.8 0 8.726099-7.073901 15.8-15.8 15.8h-9.56129c-8.726099 0-15.8 7.073901-15.8 15.8v.364516c0 8.524782 6.910701 15.435484 15.435484 15.435484 8.524782 0 15.435483 6.910702 15.435483 15.435484V142.2c0 8.726099-7.073901 15.8-15.8 15.8h-81.593548c-8.726099 0-15.8-7.073901-15.8-15.8 0-8.726099 7.073901-15.8 15.8-15.8h9.56129c8.726099 0 15.8-7.073901 15.8-15.8z"></path><circle id="Oval-3-Copy" cx="261" cy="20" r="5" fill="#9AC2F0"></circle><path id="Oval-3" stroke="#031836" stroke-linecap="round" stroke-width="2" d="M258 27c2.761424 0 5-2.2385763 5-5s-2.238576-5-5-5-5 2.2385763-5 5"></path><circle id="Oval-3-Copy-3" cx="57" cy="138" r="5" fill="#9AC2F0"></circle><path id="Oval-3-Copy-2" stroke="#031836" stroke-linecap="round" stroke-width="2" d="M54 145c2.7614237 0 5-2.238576 5-5s-2.2385763-5-5-5-5 2.238576-5 5"></path><path id="Rectangle-6-Copy-2" fill="#031836" d="M350.458333 188h.083334c.552284 0 1 .447715 1 1v6c0 .552285-.447716 1-1 1h-.083334c-.552284 0-1-.447715-1-1v-6c0-.552285.447716-1 1-1zm12.375 11.958333v.083334c0 .552284-.447715 1-1 1h-6c-.552284 0-1-.447716-1-1v-.083334c0-.552284.447716-1 1-1h6c.552285 0 1 .447716 1 1zM350.541667 212h-.083334c-.552284 0-1-.447715-1-1v-6c0-.552285.447716-1 1-1h.083334c.552284 0 1 .447715 1 1v6c0 .552285-.447716 1-1 1zm-12.375-11.958333v-.083334c0-.552284.447715-1 1-1h6c.552284 0 1 .447716 1 1v.083334c0 .552284-.447716 1-1 1h-6c-.552285 0-1-.447716-1-1z"></path><path id="Rectangle-6-Copy-4" fill="#031836" d="M12.4583333 169h.0833334c.5522847 0 1 .447715 1 1v6c0 .552285-.4477153 1-1 1h-.0833334c-.5522847 0-1-.447715-1-1v-6c0-.552285.4477153-1 1-1zm12.375 11.958333v.083334c0 .552284-.4477152 1-1 1h-6c-.5522847 0-1-.447716-1-1v-.083334c0-.552284.4477153-1 1-1h6c.5522848 0 1 .447716 1 1zM12.5416667 193h-.0833334c-.5522847 0-1-.447715-1-1v-6c0-.552285.4477153-1 1-1h.0833334c.5522847 0 1 .447715 1 1v6c0 .552285-.4477153 1-1 1zM.16666667 181.041667v-.083334c0-.552284.44771525-1 1-1h6c.55228475 0 1 .447716 1 1v.083334c0 .552284-.44771525 1-1 1h-6c-.55228475 0-1-.447716-1-1z"></path><path id="Rectangle-6-Copy-3" fill="#031836" d="M167.458333 10h.083334c.552284 0 1 .4477153 1 1v6c0 .5522847-.447716 1-1 1h-.083334c-.552284 0-1-.4477153-1-1v-6c0-.5522847.447716-1 1-1zm12.375 11.9583333v.0833334c0 .5522847-.447715 1-1 1h-6c-.552284 0-1-.4477153-1-1v-.0833334c0-.5522847.447716-1 1-1h6c.552285 0 1 .4477153 1 1zM167.541667 34h-.083334c-.552284 0-1-.4477153-1-1v-6c0-.5522847.447716-1 1-1h.083334c.552284 0 1 .4477153 1 1v6c0 .5522847-.447716 1-1 1zm-12.375-11.9583333v-.0833334c0-.5522847.447715-1 1-1h6c.552284 0 1 .4477153 1 1v.0833334c0 .5522847-.447716 1-1 1h-6c-.552285 0-1-.4477153-1-1z"></path><circle id="Oval-4" cx="301.5" cy="135.5" r="3.5" fill="#031836"></circle><circle id="Oval-4-Copy" cx="191.5" cy="333.5" r="3.5" fill="#031836"></circle></g><g id="Group-10" transform="translate(63 26)"><g id="Group-3" transform="rotate(5 5.19869324 322.94136448)"><g id="Group-7" stroke-width="2" transform="rotate(-15 349.45577141 42.6007427)"><path id="Oval-6" fill="#FFF" fill-rule="nonzero" stroke="#6e767e" d="M6.168017 25.5850463C2.4445582 19.588188-4.13008708 4.55368576 3.59349098.72980202 11.317069-3.09408173 15.8224896 9.01488345 22.9024361 16.025337 36.2697697 29.2614638 50.608464 34.5074417 70.5311675 34.5074417c7.2440959 0 14.2795412-1.3407779 20.8511954-3.9189267 6.6094922-2.5929931 14.0904181.6104308 16.7091141 7.1550478 2.618697 6.5446169-.616481 13.9521135-7.225974 16.5451067C91.2875127 58.0462447 81.0355996 60 70.5311675 60 41.5707415 60 21.0533909 49.5588521 6.168017 25.5850463z"></path><path id="Path-4" stroke="#7ED7FF" d="M9.01837282 29.190809l15.99999998-11"></path></g><g id="Group" transform="translate(35)"><g id="Group-4" stroke-width="2" transform="rotate(-66 205.58754872 132.45749911)"><path id="Oval-10" fill="#FFF" fill-rule="nonzero" stroke="#6e767e" d="M112.643726 6.16643063L101.140147 34.9118775c-4.897349-1.9713802-10.1481369-2.9973476-15.5665036-2.9973476-15.4942273 0-29.4796321 8.512376-36.7616883 21.9222713l-5.1472868 15.4871795L0 53.8368012l21.6898745-14.8148431C34.3283352 15.748252 58.6572663.94017094 85.5736434.94017094c9.3761725 0 18.5302956 1.78865192 27.0700826 5.22625969z"></path><path id="Path-4-Copy-8" stroke="#6e767e" d="M25 35l25 16"></path><path id="Path-4-Copy-9" stroke="#7ED7FF" d="M29.190809 28.9816272l25 16"></path></g><g id="Group-9" stroke-width="2" transform="rotate(-11 863.44663812 -263.90879989)"><path id="Oval-10-Copy" fill="#FFF" fill-rule="nonzero" stroke="#6e767e" d="M50.9853282 2.6871711L65.196864 30.1872792C49.5052332 38.3440848 39.4534918 54.579822 39.4534918 72.6190616c0 11.8843172 4.3247179 23.0533627 12.0426516 31.7440574l12.868217 12.905983-34.744186 34.846154-1.1863468-27.150825C15.7254196 110.654267 8.56977087 92.1740405 8.56977087 72.6190616c0-29.723011 16.57888833-56.5015028 42.41555733-69.9318905z" transform="rotate(-6 36.883317 77.401214)"></path><path id="Path-4-Copy-7" stroke="#7ED7FF" d="M21.809191 114.018373l23.3982586-22.3121758"></path><path id="Path-4-Copy-6" stroke="#6e767e" d="M27 118l22-21"></path></g><path id="Rectangle-20" fill="#E5F7FF" d="M121.984496 76.1452991h12.8682171v117.444444H121.984496z"></path><path id="Rectangle-18" stroke="#7ED7FF" stroke-width="2" d="M56.0697674 76.4358974h59.7674416V30.8837209C115.837209 14.3793976 102.457812 1 85.9534884 1c-16.5043234 0-29.883721 13.3793976-29.883721 29.8837209v45.5521765z"></path><path id="Rectangle-18-Copy" fill="#FFF" stroke="#6e767e" stroke-width="2" d="M66.6511628 74.8547009v-30.974359c0-9.9788886 8.0658158-18.0683761 18.0155039-18.0683761 9.949688 0 18.0155043 8.0894875 18.0155043 18.0683761v30.974359"></path><path id="Rectangle-17" stroke="#6e767e" stroke-width="2" d="M135.139535 75.8547009H45.7751938V193.880342h89.3643412V75.8547009z"></path><path id="Rectangle-17-Copy" fill="#FFF" stroke="#6e767e" stroke-width="2" d="M45.7751938 75.8547009V193.880342h76.4961242V75.8547009H45.7751938z"></path><path id="Rectangle-15-Copy" fill="#FFF" stroke="#6e767e" stroke-width="2" d="M60.1331864 96.4875357l-5.8491807 5.8663473v50.210576h50.0577963l5.84918-5.866347V96.4875357H60.1331864z"></path><path id="Rectangle-15" fill="#FFF" stroke="#6e767e" stroke-width="2" d="M54.2840057 102.940527h49.4728682v49.6239316H54.2840057z"></path></g><path id="Rectangle-22" stroke="#25c4f2" stroke-width="2" d="M95.9429205 110.692664h11v11h-11z"></path><path id="Rectangle-22-Copy-2" stroke="#7ED7FF" stroke-width="2" d="M95.9429205 128.692664h5v5h-5z"></path><path id="Rectangle-22-Copy-3" stroke="#7ED7FF" stroke-width="2" d="M107.94292 128.692664h5v5h-5z"></path><path id="Rectangle-22-Copy" stroke="#7ED7FF" stroke-width="2" d="M124.94292 110.692664h5v34h-5z"></path><path id="Rectangle-4" stroke="#7ED7FF" stroke-width="2" d="M113.94292 110.692664h4v2h-4z"></path><g id="Group-8" stroke-width="2" transform="rotate(8 -539.7844324 986.027097)"><path id="Oval-6" fill="#FFF" fill-rule="nonzero" stroke="#6e767e" d="M13.168017 54.5850463C9.4445582 48.588188 2.86991292 33.5536858 10.593491 29.729802c7.723578-3.8238837 12.2289986 8.2850815 19.3089451 15.295535C43.2697697 58.2614638 57.608464 63.5074417 77.5311675 63.5074417c7.2440959 0 14.2795412-1.3407779 20.8511954-3.9189267 6.6094921-2.5929931 14.0904181.6104308 16.7091141 7.1550478 2.618697 6.5446169-.616481 13.9521135-7.225974 16.5451067C98.2875127 87.0462447 88.0355996 89 77.5311675 89c-28.960426 0-49.4777766-10.4411479-64.3631505-34.4149537z" transform="rotate(-140 61.5 59)"></path><path id="Path-4-Copy" stroke="#7ED7FF" d="M77 87h20"></path></g></g><path id="Rectangle-24-Copy" fill="#25c4f2" stroke="#6e767e" stroke-width="2" d="M7.57406107 187.17808l76.38596843 19.096493 40.1767425-13.392248c1.621776-.540592 2.854959-1.872278 3.269574-3.530738.669744-2.678975-.95906-5.393647-3.638034-6.063391l-58.3158106-14.578953c-.9225281-.230632-1.891695-.193411-2.793817.107296L7.57406107 187.17808z"></path><path id="Rectangle-24-Copy-2" fill="url(#linearGradient-1)" d="M8.36438457 130.078766L124 97.3153416V194l-40 13.5-80-20.184658v-51.463816c0-2.683782 1.78224588-5.041154 4.36438457-5.77276z" opacity=".34910714"></path><path id="Rectangle-24" fill="#25c4f2" stroke="#6e767e" stroke-width="2" d="M5 186.534565l78 19.5V152c0-2.294338-1.5614869-4.294254-3.7873219-4.850713l-68-17C10.8160751 130.050137 10.408809 130 10 130c-2.76142375 0-5 2.238576-5 5v51.534565z"></path><circle id="Oval-18" cx="44" cy="168" r="6" fill="#FFF"></circle></g><g id="Group-13" transform="rotate(15 -7.09597576 1174.67160868)"><rect id="Rectangle-16-Copy-2" width="58" height="48" x="4" fill="#FFF" rx="4"></rect><rect id="Rectangle-16" width="58" height="48" y="4" stroke="#25c4f2" stroke-width="2" rx="4"></rect><path id="Rectangle-18" stroke="#25c4f2" stroke-width="2" d="M27 12h24v14H27z"></path><path id="Rectangle-18-Copy" stroke="#25c4f2" stroke-width="2" d="M27 32h10v10H27z"></path><path id="Path-2" stroke="#25c4f2" stroke-width="2" d="M42 32h10"></path><path id="Path-2-Copy-7" stroke="#25c4f2" stroke-width="2" d="M6 12h8"></path><path id="Path-2-Copy-8" stroke="#25c4f2" stroke-width="2" d="M6 18h8"></path><path id="Path-2-Copy-10" stroke="#25c4f2" stroke-width="2" d="M6 24h8"></path><path id="Path-2-Copy-11" stroke="#25c4f2" stroke-width="2" d="M6 30h8"></path><path id="Path-2-Copy-12" stroke="#25c4f2" stroke-width="2" d="M6 36h8"></path><path id="Path-2-Copy-2" stroke="#25c4f2" stroke-width="2" d="M42 36h10"></path><path id="Path-2-Copy-5" stroke="#25c4f2" stroke-width="2" d="M42 40h10"></path><path id="Path-2-Copy-6" stroke="#25c4f2" stroke-width="2" d="M42 44h10"></path><path id="Path-12" stroke="#25c4f2" stroke-width="2" d="M19 5v46"></path></g><g id="Group-6-Copy" stroke="#25c4f2" stroke-width="2" transform="rotate(-15 90.6808935 -111.41508225)"><g id="Group-5" transform="translate(18)"><circle id="Oval-3-Copy" cx="20.0831247" cy="20.7728511" r="19" fill="#FFF"></circle><path id="Rectangle-13" d="M17.0831247 14.6413682V26.904334l9.1972244-6.1314829-9.1972244-6.1314829z"></path></g><g id="Group-15" fill="#FFF" transform="translate(35.983306 30.33954)"><path id="Rectangle-12" d="M1.0488426 1.01202007h34v38h-34z"></path><path id="Rectangle-12-Copy" d="M7.0488426 7.01202007h22v18h-22z"></path></g><circle id="Oval-3" cx="20.0222252" cy="48.2354286" r="19" fill="#FFF"></circle><g id="Group-14" transform="translate(10 40)"><circle id="Oval-4" cx="3.02222521" cy="13.2354286" r="3"></circle><circle id="Oval-4-Copy" cx="15.0222252" cy="13.2354286" r="3"></circle><path id="Path-3" d="M6.02222521 13.2354286V.24199727L18.0222252.23542865V13.2354286"></path></g></g><g id="Group-7-Copy" stroke="#25c4f2" stroke-width="2" transform="rotate(-45 479.19090886 -210.16756826)"><path id="Rectangle-15" fill="#FFF" d="M18.8797431 43.0173963v15.985756c0 1.9163926 1.5535432 3.4699358 3.4699358 3.4699358s3.4699358-1.5535432 3.4699358-3.4699358v-15.985756h-6.9398716z"></path><circle id="Oval-7" cx="22.3496789" cy="22.3496789" r="21.3496789" fill="#FFF"></circle><circle id="Oval-10" cx="22.3496789" cy="22.3496789" r="15.985756" fill="#FFF"></circle><path id="Oval-5" d="M33.0775248 22.3496789c0-5.9248257-4.8030202-10.7278459-10.7278459-10.7278459"></path></g><g id="Group-4-Copy" stroke="#25c4f2" stroke-width="2" transform="rotate(-30 490.4800715 94.51923789)"><g id="Group-3" fill="#FFF" transform="rotate(15 7.51061472 62.6808935)"><path id="Rectangle-11-Copy-2" d="M15.6666667 1H43v35.1428571H15.6666667z"></path><path id="Rectangle-11-Copy" d="M1 8.42857143h27.3333333v35.1428571H1z"></path><path id="Rectangle-11" d="M8.33333333 15.8571429h27.3333333V51H8.33333333z"></path></g><path id="Rectangle-10" fill="#FFF" d="M1.27560711 31l6.88333333 28H50.8410596l6.8833333-28H1.27560711z"></path><path id="Oval-2" d="M21 39c0 4.9705627 4.0294373 9 9 9s9-4.0294373 9-9"></path></g></g></g></g></svg>
